<svg width="157" height="32" viewBox="0 0 157 32" fill="none" xmlns="http://www.w3.org/2000/svg">
<path d="M19.5421 20.1421C19.5434 18.7038 19.2277 17.283 18.6176 15.9813C19.2325 14.6641 19.5476 13.2261 19.54 11.7716C19.5325 10.3171 19.2026 8.88251 18.5742 7.57174C17.9458 6.26098 17.0346 5.10689 15.9066 4.19312C14.7787 3.27934 13.4623 2.62876 12.0528 2.28853C12.0528 1.68157 11.8125 1.09948 11.3848 0.670294C10.957 0.241112 10.3768 0 9.77188 0C9.16693 0 8.58676 0.241112 8.159 0.670294C7.73124 1.09948 7.49092 1.68157 7.49092 2.28853C3.19489 3.31997 3.32795e-06 7.1968 3.32795e-06 11.8216C-0.0011813 13.2594 0.31391 14.6798 0.922798 15.9813C0.314029 17.2833 -0.000872774 18.704 0.000557133 20.1421C0.000557133 24.7681 3.19655 28.6449 7.49369 29.673V29.6769C7.48898 29.9803 7.54446 30.2815 7.6569 30.5632C7.76935 30.8448 7.93651 31.1012 8.14865 31.3174C8.3608 31.5336 8.61369 31.7053 8.8926 31.8225C9.17151 31.9396 9.47088 32 9.77326 32C10.0756 32 10.375 31.9396 10.6539 31.8225C10.9328 31.7053 11.1857 31.5336 11.3979 31.3174C11.61 31.1012 11.7772 30.8448 11.8896 30.5632C12.0021 30.2815 12.0575 29.9803 12.0528 29.6769V29.6714C14.1866 29.1574 16.0858 27.9376 17.4444 26.2087C18.803 24.4797 19.5419 22.3422 19.5421 20.1405V20.1421ZM9.76966 26.198C8.16842 26.198 6.63276 25.5598 5.50051 24.4238C4.36826 23.2878 3.73217 21.747 3.73217 20.1405C3.73195 19.9434 3.74156 19.7464 3.76097 19.5503C4.96178 20.4912 6.36556 21.1368 7.85982 21.4353C8.07273 21.7519 8.36036 22.0106 8.6971 22.1886C9.03384 22.3666 9.40923 22.4582 9.78981 22.4553C10.1704 22.4525 10.5444 22.3552 10.8784 22.1722C11.2125 21.9892 11.4962 21.7261 11.7044 21.4064C11.9125 21.0868 12.0386 20.7204 12.0715 20.3399C12.1043 19.9595 12.0428 19.5768 11.8925 19.226C11.7422 18.8752 11.5078 18.5671 11.2101 18.3292C10.9124 18.0913 10.5606 17.931 10.1862 17.8625C9.9135 17.8129 9.63413 17.8129 9.36144 17.8625C7.93666 17.7637 6.59276 17.1619 5.56794 16.1639C4.54312 15.1659 3.90357 13.8361 3.76263 12.4102C3.74249 12.2141 3.73214 12.0171 3.73162 11.82C3.73162 10.2127 4.368 8.67122 5.50077 7.53469C6.63354 6.39816 8.1699 5.75966 9.77188 5.75966C11.3739 5.75966 12.9102 6.39816 14.043 7.53469C15.1758 8.67122 15.8121 10.2127 15.8121 11.82C15.8121 12.0195 15.8011 12.2162 15.7833 12.4102C14.5827 11.4689 13.1789 10.8233 11.6845 10.5251C11.4718 10.2084 11.1844 9.94946 10.8477 9.77128C10.5111 9.5931 10.1358 9.50125 9.75518 9.50391C9.37459 9.50657 9.00057 9.60367 8.66646 9.78654C8.33234 9.96941 8.04851 10.2324 7.84026 10.552C7.63201 10.8716 7.50582 11.238 7.47292 11.6184C7.44002 11.9989 7.50145 12.3816 7.65172 12.7324C7.80199 13.0832 8.03644 13.3913 8.33417 13.6292C8.63191 13.8671 8.98367 14.0273 9.35811 14.0957C9.63067 14.1469 9.91031 14.1469 10.1829 14.0957C11.6082 14.1935 12.9528 14.7952 13.9777 15.7939C15.0025 16.7927 15.6411 18.1237 15.78 19.5503C15.8006 19.7463 15.8112 19.9433 15.8116 20.1405C15.8106 21.7477 15.1734 23.2887 14.0401 24.4246C12.9069 25.5606 11.3704 26.1985 9.76855 26.198" fill="#FFC700"/>
<path d="M31.337 8.72414L35.1328 8.13617L34.2039 11.9435H38.2662L37.5351 14.9395H33.4944L32.4154 19.4587C32.323 19.8045 32.2614 20.1579 32.2315 20.5146C32.2071 20.8398 32.2459 21.1232 32.3556 21.3621C32.4679 21.6053 32.6621 21.8008 32.9039 21.9145C33.1665 22.0457 33.526 22.1102 33.9813 22.1102C34.3645 22.1132 34.747 22.0771 35.1229 22.0024C35.5012 21.9279 35.8735 21.8253 36.2367 21.6956L36.5054 24.4954C35.9856 24.6851 35.4545 24.8419 34.9151 24.965C34.3446 25.0939 33.6666 25.1578 32.8851 25.1578C31.7568 25.1578 30.8844 24.9911 30.2624 24.6577C29.6404 24.3242 29.2006 23.8574 28.938 23.2805C28.6755 22.7037 28.5641 22.0329 28.5985 21.2799C28.6381 20.4771 28.7518 19.6798 28.938 18.898L31.337 8.72414Z" fill="#FFC700"/>
<path d="M51.7528 11.9431L50.0158 19.2877C49.7872 20.2058 49.7201 21.1569 49.8175 22.0981C49.9164 23.041 50.1049 23.8796 50.383 24.6139L47.1283 25.0791C46.9332 24.689 46.7616 24.2876 46.6142 23.877C46.1417 24.2469 45.6224 24.5524 45.07 24.7857C44.4666 25.0371 43.8183 25.162 43.1651 25.1524C42.1963 25.1524 41.4181 24.9785 40.8226 24.6262C40.2527 24.3006 39.7905 23.8145 39.4933 23.2279C39.1986 22.645 39.0374 21.9786 39.0175 21.2234C38.9936 20.4455 39.0791 19.6682 39.2717 18.9143L40.9373 11.9431H44.5836L42.9441 18.8693C42.8593 19.2288 42.794 19.5967 42.7364 19.9741C42.6787 20.3194 42.6744 20.6716 42.7236 21.0183C42.7601 21.3153 42.8935 21.5918 43.1031 21.8047C43.3047 22.0086 43.6287 22.1103 44.0696 22.1103C44.4267 22.113 44.7806 22.0421 45.1093 21.9019C45.43 21.7636 45.7673 21.5235 46.1268 21.1795C46.1611 20.7705 46.2104 20.3414 46.2847 19.8896C46.3589 19.4378 46.4381 19.0238 46.5195 18.6486L48.1059 11.9431H51.7528Z" fill="#FFC700"/>
<path d="M53.4673 19.7028C53.4601 18.6322 53.6426 17.5689 54.0063 16.5624C54.3467 15.609 54.8709 14.7323 55.5489 13.9821C56.2307 13.236 57.061 12.6417 57.9861 12.2376C58.9406 11.8138 60.0054 11.6009 61.1804 11.5991C61.8429 11.591 62.5041 11.6615 63.1501 11.8091C63.695 11.9339 64.2245 12.119 64.7287 12.361L63.4824 15.2086C63.1556 15.0769 62.8178 14.9607 62.4649 14.8529C62.1121 14.7451 61.6895 14.6951 61.1821 14.6951C59.9572 14.6951 58.9942 15.1082 58.2929 15.9344C57.5917 16.7606 57.2409 17.8863 57.2405 19.3116C57.2405 20.1474 57.4198 20.8228 57.7783 21.3378C58.1411 21.8535 58.7992 22.1114 59.7613 22.1114C60.2221 22.1143 60.6816 22.0645 61.1311 21.963C61.5333 21.8764 61.927 21.7542 62.3076 21.5979L62.5763 24.5166C62.0855 24.7098 61.5825 24.8704 61.0707 24.9973C60.5213 25.1368 59.8599 25.2074 59.0767 25.2074C58.0653 25.2074 57.2051 25.0596 56.5055 24.7628C55.8059 24.466 55.2276 24.072 54.7701 23.5707C54.3116 23.069 53.9721 22.4698 53.7769 21.818C53.5705 21.1321 53.4667 20.4193 53.469 19.7028" fill="#022C43"/>
<path d="M76.3102 19.2876C76.0853 20.2066 76.0193 21.1576 76.1153 22.099C76.2113 23.0419 76.3979 23.8813 76.6753 24.6171L73.4216 25.0844C73.3214 24.8866 73.2344 24.6988 73.1519 24.5165C73.0694 24.3342 72.9857 24.1347 72.9054 23.9052C72.4442 24.284 71.9333 24.5976 71.3872 24.8371C70.8333 25.0844 70.2162 25.2073 69.5283 25.2073C68.7157 25.2073 68.0123 25.0633 67.4357 24.7766C66.878 24.51 66.3915 24.1144 66.016 23.6223C65.6367 23.1196 65.3665 22.5428 65.2228 21.929C64.7967 20.178 64.9203 18.3378 65.5768 16.66C65.9574 15.6884 66.5217 14.7998 67.2385 14.0431C67.9661 13.2783 68.8423 12.6712 69.8128 12.2592C70.7834 11.8472 71.8278 11.6392 72.8816 11.6478C73.0273 11.6478 73.2859 11.6578 73.6499 11.6728C74.0138 11.6879 74.4408 11.7251 74.9127 11.784C75.4163 11.8493 75.9157 11.944 76.4083 12.0674C76.9223 12.1963 77.4219 12.3773 77.8994 12.6076L76.3102 19.2876ZM73.7623 14.7672C73.5524 14.735 73.3613 14.7116 73.1907 14.6949C72.9832 14.6748 72.7749 14.6655 72.5664 14.6672C72.0202 14.6656 71.4835 14.8102 71.0116 15.0862C70.5256 15.3668 70.0976 15.7381 69.7504 16.1799C69.3822 16.6479 69.0962 17.1754 68.9046 17.7398C68.7015 18.3328 68.5987 18.9557 68.6005 19.5827C68.6005 20.3674 68.7307 20.9914 68.9882 21.4483C69.2458 21.9051 69.7332 22.1363 70.4345 22.1363C70.7855 22.1422 71.1331 22.0661 71.4498 21.914C71.75 21.7661 72.0746 21.5205 72.4163 21.1771C72.449 20.7658 72.5022 20.3385 72.5786 19.8872C72.6551 19.4359 72.726 19.0214 72.8135 18.6462L73.7623 14.7672Z" fill="#022C43"/>
<path d="M81.8413 12.5337C82.1221 12.452 82.4146 12.357 82.7364 12.2503C83.0582 12.1436 83.4127 12.0463 83.8115 11.9541C84.2103 11.8618 84.6612 11.7929 85.1597 11.7318C85.7334 11.6715 86.3099 11.6431 86.8867 11.6467C87.6688 11.6467 88.3176 11.7455 88.8331 11.9429C89.3535 12.144 89.8305 12.4434 90.2384 12.8249C90.8164 12.4944 91.4198 12.2108 92.043 11.9768C92.6338 11.7579 93.3295 11.6479 94.1301 11.6467C94.8972 11.6467 95.5563 11.7496 96.1008 11.9524C96.6121 12.1304 97.0735 12.4287 97.4463 12.8223C97.8192 13.2159 98.0926 13.6934 98.2439 14.2148C98.4125 14.7846 98.4945 15.3766 98.487 15.9709C98.4872 16.2822 98.4687 16.5933 98.4316 16.9023C98.3896 17.2336 98.3279 17.5621 98.2466 17.886L96.5849 24.861H92.9375L94.5538 18.0349C94.5998 17.8037 94.654 17.5459 94.7139 17.2569C94.7669 16.9775 94.7942 16.6938 94.7953 16.4094C94.7953 15.9515 94.6893 15.5549 94.4773 15.2196C94.2654 14.8843 93.8483 14.7174 93.2261 14.7189C92.8918 14.718 92.5603 14.7804 92.249 14.9028C91.9377 15.0262 91.6641 15.1529 91.4143 15.2813C91.4468 15.4025 91.4637 15.5275 91.4647 15.653V15.9726C91.4644 16.2841 91.444 16.5952 91.4038 16.904C91.3618 17.2354 91.2994 17.5639 91.2171 17.8877L89.5554 24.8627H85.9047L87.5209 18.0366C87.568 17.8054 87.6206 17.5475 87.6799 17.2586C87.7353 16.9794 87.7644 16.6957 87.7669 16.4111C87.7669 15.9531 87.6561 15.5569 87.4462 15.2212C87.2362 14.8856 86.8169 14.7166 86.1993 14.7166C85.9772 14.7136 85.7551 14.7261 85.5347 14.7539C85.3519 14.7789 85.1431 14.8155 84.8993 14.865L82.5259 24.8633H78.8801L81.8413 12.5337Z" fill="#022C43"/>
<path d="M108.385 11.6753C109.166 11.6753 109.84 11.8115 110.413 12.0904C110.966 12.3547 111.452 12.7418 111.834 13.2225C112.219 13.7175 112.503 14.2841 112.67 14.8897C112.854 15.5624 112.944 16.2573 112.938 16.9548C112.944 19.1286 112.11 21.22 110.611 22.79C109.884 23.5389 109.018 24.1394 108.063 24.5584C107.059 24.9974 105.973 25.2193 104.877 25.2097C104.733 25.2097 104.475 25.2042 104.109 25.1958C103.687 25.1835 103.266 25.1464 102.849 25.0847C102.342 25.0138 101.84 24.9159 101.344 24.7913C100.823 24.6641 100.317 24.4829 99.8342 24.2505L104.069 6.39413L107.868 5.8056L106.347 12.141C106.663 11.9979 106.991 11.8828 107.327 11.797C107.673 11.7139 108.028 11.6736 108.384 11.677L108.385 11.6753ZM105.196 22.1865C105.762 22.1888 106.319 22.0457 106.814 21.7708C107.319 21.4887 107.764 21.1088 108.123 20.6532C108.498 20.1765 108.792 19.6405 108.992 19.0672C109.205 18.4771 109.314 17.8538 109.312 17.226C109.312 16.4402 109.18 15.8244 108.919 15.3832C108.657 14.9419 108.176 14.7202 107.475 14.7202C107.174 14.7305 106.875 14.7721 106.582 14.8441C106.212 14.9262 105.87 15.1033 105.589 15.3582L103.974 22.0876C104.068 22.1043 104.157 22.1209 104.23 22.1371C104.304 22.1532 104.383 22.1643 104.464 22.1748C104.546 22.1854 104.641 22.1848 104.757 22.1848L105.196 22.1865Z" fill="#022C43"/>
<path d="M117.786 24.8613H114.159L117.22 11.9432H120.868L117.786 24.8613ZM119.548 10.371C119.053 10.3749 118.57 10.215 118.174 9.91585C117.766 9.61408 117.565 9.15115 117.565 8.5265C117.562 8.19183 117.633 7.86062 117.774 7.5573C117.904 7.26197 118.09 6.995 118.322 6.77148C118.552 6.54921 118.821 6.37054 119.114 6.24409C119.422 6.11181 119.753 6.04465 120.088 6.0468C120.581 6.04423 121.062 6.20348 121.456 6.50028C121.862 6.80594 122.07 7.26831 122.07 7.88963C122.071 8.22456 122 8.55568 121.86 8.85995C121.727 9.15418 121.54 9.42074 121.309 9.64576C121.077 9.86862 120.807 10.0477 120.512 10.1743C120.208 10.3061 119.88 10.3735 119.549 10.3721" fill="#022C43"/>
<path d="M125.52 22.2586C126.351 22.2586 126.923 22.1419 127.231 21.9029C127.538 21.664 127.695 21.4094 127.695 21.1305C127.699 20.9706 127.67 20.8117 127.61 20.6636C127.546 20.5212 127.452 20.3949 127.333 20.2941C127.167 20.1566 126.986 20.037 126.795 19.9373C126.563 19.8139 126.27 19.6722 125.909 19.5099C125.502 19.3271 125.115 19.1365 124.756 18.9309C124.408 18.7322 124.091 18.4838 123.815 18.1934C123.548 17.906 123.334 17.5738 123.183 17.212C123.025 16.8435 122.95 16.405 122.95 15.8982C122.95 14.5707 123.435 13.523 124.407 12.755C125.378 11.987 126.794 11.602 128.652 11.6002C129.533 11.6002 130.319 11.698 131.002 11.8925C131.686 12.087 132.243 12.3032 132.664 12.5332L131.419 15.2563C130.995 15.043 130.552 14.8705 130.095 14.7412C129.581 14.5807 129.045 14.4977 128.506 14.495C128.28 14.4947 128.053 14.5071 127.828 14.5322C127.618 14.5532 127.412 14.6072 127.219 14.6923C127.042 14.7656 126.888 14.8833 126.77 15.034C126.654 15.1841 126.596 15.3786 126.596 15.6237C126.596 15.9521 126.721 16.1983 126.973 16.3623C127.224 16.5262 127.586 16.7224 128.04 16.9524C128.677 17.2614 129.21 17.5487 129.634 17.8105C130.058 18.0722 130.398 18.3518 130.646 18.6441C130.899 18.9379 131.088 19.2819 131.2 19.6539C131.321 20.0847 131.379 20.5311 131.372 20.9787C131.369 21.5124 131.256 22.0397 131.039 22.527C130.803 23.053 130.447 23.5162 130.001 23.8797C129.528 24.2687 128.92 24.5921 128.189 24.8355C127.458 25.0789 126.573 25.2057 125.545 25.2057C124.966 25.2102 124.387 25.1684 123.814 25.0806C123.356 25.0117 122.903 24.9095 122.459 24.775C122.119 24.6724 121.787 24.5451 121.466 24.3943C121.197 24.2642 120.991 24.1581 120.844 24.0742L122.089 21.2755C122.368 21.4389 122.801 21.6427 123.389 21.8868C123.974 22.1336 124.687 22.2553 125.52 22.2553" fill="#022C43"/>
<path d="M136.902 8.72414L140.698 8.13617L139.766 11.9435H143.831L143.097 14.9395H139.054L137.978 19.4587C137.885 19.8044 137.824 20.1578 137.794 20.5146C137.771 20.8398 137.81 21.1232 137.916 21.3621C138.03 21.6046 138.225 21.7998 138.466 21.9145C138.728 22.0457 139.086 22.1102 139.545 22.1102C139.927 22.1117 140.308 22.0745 140.682 21.999C141.06 21.9244 141.433 21.8219 141.797 21.6923L142.065 24.4921C141.545 24.6816 141.014 24.8385 140.474 24.9617C139.902 25.0906 139.226 25.1549 138.445 25.1545C137.317 25.1545 136.443 24.9878 135.822 24.6543C135.202 24.3209 134.761 23.863 134.501 23.2805C134.242 22.6998 134.126 22.0329 134.161 21.2799C134.2 20.477 134.314 19.6796 134.501 18.898L136.902 8.72414Z" fill="#022C43"/>
<path d="M155.41 19.2876C155.182 20.2062 155.116 21.1576 155.214 22.0991C155.312 23.0438 155.497 23.8774 155.773 24.6171L152.521 25.0845C152.424 24.8867 152.332 24.6988 152.252 24.5165C152.172 24.3342 152.086 24.1347 152.005 23.9052C151.545 24.2842 151.035 24.5978 150.49 24.8372C149.936 25.0843 149.315 25.2077 148.626 25.2073C147.811 25.2073 147.115 25.0634 146.532 24.7766C145.976 24.5077 145.49 24.1125 145.112 23.6223C144.736 23.1174 144.466 22.5414 144.318 21.929C144.154 21.2496 144.072 20.5526 144.076 19.8533C144.068 18.7604 144.27 17.6762 144.671 16.6601C145.055 15.6886 145.622 14.8002 146.34 14.0431C147.053 13.2969 147.906 12.7002 148.85 12.2875C149.837 11.8565 150.904 11.6385 151.98 11.6479C152.127 11.6479 152.384 11.6579 152.752 11.6729C153.12 11.6879 153.542 11.7251 154.013 11.784C154.515 11.8491 155.013 11.9438 155.504 12.0675C156.02 12.1958 156.521 12.3768 157 12.6076L155.41 19.2876ZM152.862 14.7672C152.651 14.735 152.46 14.7117 152.291 14.695C152.083 14.6749 151.873 14.6656 151.664 14.6672C151.119 14.6664 150.584 14.811 150.113 15.0862C149.627 15.3654 149.199 15.7369 148.854 16.1799C148.484 16.6471 148.196 17.1748 148.005 17.7399C147.802 18.333 147.7 18.9558 147.701 19.5827C147.701 20.3674 147.832 20.9915 148.092 21.4483C148.351 21.9051 148.834 22.1363 149.537 22.1363C149.888 22.1418 150.235 22.0657 150.551 21.914C150.853 21.7662 151.18 21.5205 151.519 21.1771C151.554 20.7659 151.606 20.3385 151.676 19.8872C151.746 19.436 151.829 19.0214 151.912 18.6463L152.862 14.7672Z" fill="#022C43"/>
</svg>
